<?xml version="1.0" standalone="no"?>
<!DOCTYPE svg PUBLIC "-//W3C//DTD SVG 20010904//EN"
 "http://www.w3.org/TR/2001/REC-SVG-20010904/DTD/svg10.dtd">
<svg version="1.0" xmlns="http://www.w3.org/2000/svg"
 width="700.000000pt" height="700.000000pt" viewBox="0 0 700.000000 700.000000"
 preserveAspectRatio="xMidYMid meet">
<metadata>
Created by potrace 1.14, written by Peter Selinger 2001-2017
</metadata>
<g transform="translate(0.000000,700.000000) scale(0.100000,-0.100000)"
fill="#000000" stroke="none">
<path d="M3258 6989 c-1010 -68 -1938 -571 -2555 -1385 -368 -485 -596 -1049
-680 -1680 -22 -165 -25 -646 -5 -809 42 -337 122 -653 242 -944 422 -1028
1316 -1800 2395 -2070 109 -27 326 -66 460 -83 164 -20 644 -17 810 5 652 87
1221 324 1735 723 141 109 391 351 515 499 445 528 717 1159 801 1860 20 172
23 569 5 735 -38 350 -121 681 -247 987 -47 115 -169 360 -199 398 -37 48
-1071 1141 -1136 1201 -33 30 -134 93 -274 169 l-70 38 65 -69 c116 -123 183
-288 200 -492 15 -176 30 -998 31 -1712 1 -971 13 -1582 33 -1653 61 -222 201
-314 401 -262 32 9 63 14 68 12 17 -5 -87 -76 -167 -112 -173 -80 -386 -113
-529 -81 -116 26 -191 68 -277 155 -57 58 -86 96 -117 161 -43 86 -85 217
-103 319 -6 31 -15 397 -20 826 -33 2670 -30 2567 -74 2653 -34 67 -80 119
-128 143 -57 29 -158 35 -237 15 -35 -9 -66 -15 -68 -12 -8 8 79 68 154 105
154 77 332 118 461 107 40 -4 80 -9 90 -12 73 -20 -108 50 -248 96 -431 143
-880 200 -1332 169z m-726 -1914 c-160 -119 -269 -256 -334 -420 l-31 -80 -8
-330 c-4 -181 -8 -1036 -8 -1898 l-1 -1568 -31 -60 c-40 -81 -99 -143 -168
-176 -49 -25 -67 -28 -151 -28 -84 0 -102 3 -152 28 -106 52 -176 143 -198
256 -14 76 -14 3328 1 3458 61 546 477 877 1123 892 l59 1 -101 -75z m791 50
c75 -20 161 -61 215 -104 l40 -32 58 29 c150 75 336 120 534 129 l125 5 -88
-56 c-49 -30 -109 -74 -135 -97 -101 -88 -185 -213 -225 -332 -21 -61 -21 -86
-28 -1092 -5 -861 -8 -1038 -21 -1081 -30 -105 -129 -201 -246 -239 -170 -56
-373 55 -434 237 -8 23 -13 343 -18 1068 -6 1025 -7 1036 -28 1115 -12 44 -34
103 -48 132 -29 60 -109 136 -161 154 -45 15 -173 7 -233 -14 -24 -9 -46 -14
-48 -12 -8 8 118 97 183 129 165 80 386 104 558 61z"/>
</g>
</svg>
