<?xml version="1.0" encoding="UTF-8" standalone="no"?>
<!DOCTYPE svg PUBLIC "-//W3C//DTD SVG 1.1//EN" "http://www.w3.org/Graphics/SVG/1.1/DTD/svg11.dtd">
<svg width="100%" height="100%" viewBox="0 0 800 800" version="1.1" xmlns="http://www.w3.org/2000/svg" xmlns:xlink="http://www.w3.org/1999/xlink" xml:space="preserve" xmlns:serif="http://www.serif.com/" style="fill-rule:evenodd;clip-rule:evenodd;stroke-linejoin:round;stroke-miterlimit:2;">
    <circle cx="400" cy="400" r="400" style="fill:url(#_Linear1);"/>
    <path d="M301.218,211.417L287.556,211.993C215.904,215.014 170.272,254.337 165.099,317.519C163.853,332.734 163.809,700.154 165.049,707.727C165.075,707.885 165.102,708.042 165.13,708.2C165.198,708.591 165.273,708.98 165.353,709.365L165.398,709.583L165.452,709.833C165.911,711.935 166.534,713.98 167.306,715.953C167.367,716.11 167.43,716.266 167.493,716.423L167.606,716.699L167.691,716.901C167.776,717.104 167.863,717.307 167.952,717.509C168.11,717.868 168.273,718.225 168.441,718.579L168.51,718.724L168.671,719.056L168.765,719.246C169.062,719.844 169.373,720.433 169.698,721.015L169.879,721.335C171.401,724 173.214,726.485 175.281,728.747L175.53,729.018C176.953,730.549 178.493,731.975 180.137,733.283C180.507,733.577 180.882,733.866 181.263,734.148C181.934,734.645 182.621,735.124 183.323,735.583C183.462,735.674 183.601,735.763 183.74,735.852L184.055,736.051L184.291,736.197C184.985,736.623 185.692,737.03 186.412,737.417L186.641,737.54L186.805,737.626C187.192,737.829 187.583,738.026 187.979,738.218L188.317,738.38C188.441,738.439 188.566,738.498 188.692,738.555C190.004,739.161 191.352,739.702 192.734,740.175C193.022,740.273 193.31,740.369 193.6,740.461C194.205,740.653 194.819,740.833 195.439,741C196.323,741.238 197.208,741.444 198.093,741.618L198.535,741.703C199.059,741.8 199.583,741.886 200.106,741.961C217.42,744.457 234.431,735.132 242.559,718.147L245.593,711.804L246.093,398.029C246.592,282.388 246.593,282.389 249.318,273.654C256.246,251.441 270.987,232.374 293.059,217.074L301.218,211.417ZM490.49,211.638L480.756,211.657C457.573,211.702 434.158,217.022 415.426,226.495L408.624,229.934L404.204,226.232C404.053,226.106 403.902,225.981 403.751,225.858L403.612,225.745L403.367,225.548C403.05,225.294 402.728,225.043 402.402,224.795C401.953,224.454 401.497,224.12 401.035,223.793C400.624,223.502 400.207,223.217 399.785,222.936L399.554,222.783L399.332,222.639C392.081,217.926 383.333,214.764 373.907,213.117L373.547,213.055L373.388,213.028C348.849,208.896 319.851,214.98 300.73,230.666C297.186,233.573 295.015,235.796 294.834,236.526C294.732,236.936 295.257,236.875 296.518,236.201C301.289,233.647 314.977,230.978 320.248,231.573C328.078,232.456 334.605,235.855 339.785,241.71L340.071,242.038C347.008,250.077 351.483,262.601 353.393,279.461C354.011,284.916 354.392,330.078 354.396,398.659C354.403,504.819 354.448,509.114 356.278,515.14L356.367,515.429L356.469,515.754C356.504,515.862 356.538,515.97 356.573,516.078L356.625,516.234C359.709,525.493 366.207,533.267 374.875,538.445C377.545,540.041 380.421,541.39 383.467,542.46C383.95,542.629 384.44,542.793 384.933,542.949C385.961,543.274 387.008,543.569 388.071,543.83C388.304,543.888 388.538,543.942 388.775,543.992L389.13,544.066C389.586,544.157 390.046,544.236 390.51,544.302C391.857,544.495 393.237,544.587 394.64,544.582C408.467,544.54 424.426,535.175 431.307,522.117C436.453,512.352 436.376,514.268 436.394,393.347C436.409,298.095 436.635,279.371 437.839,273.608C442.672,250.471 459.033,229.566 483,215.907L490.49,211.638ZM569.978,38.445L564.345,35.813L561.793,34.696C554.211,31.869 545.798,30.453 536.606,30.453L536.606,30.453C517.373,30.453 492.501,38.785 476.454,50.602C469.979,55.37 469.974,56.175 476.439,53.59C484.64,50.312 500.371,50.546 506.998,54.044C514.992,58.263 521.418,66.69 524.943,77.576C528.974,90.021 529.116,274.352 529.859,367.289C530.649,466.097 530.542,464.342 537.19,487.322C546.937,521.016 568.281,540.273 598.668,542.785C618.838,544.452 649.872,535.216 665.437,522.912C671.715,517.95 671.497,517.62 663.564,520.09C642.228,526.73 624.734,518.341 617.612,498.056C612.535,483.598 612.594,484.703 611.871,388.758C611.148,292.855 611.2,112.704 606.019,91.846C599.58,65.918 587.373,47.921 569.978,38.445Z" style="fill:white;"/>
    <defs>
        <linearGradient id="_Linear1" x1="0" y1="0" x2="1" y2="0" gradientUnits="userSpaceOnUse" gradientTransform="matrix(572.727,-543.478,543.478,572.727,110.343,673.386)"><stop offset="0" style="stop-color:rgb(239,68,68);stop-opacity:1"/><stop offset="1" style="stop-color:rgb(252,211,77);stop-opacity:1"/></linearGradient>
    </defs>
</svg>
